<?xml version="1.0" encoding="UTF-8" standalone="no" ?>
<!DOCTYPE svg PUBLIC "-//W3C//DTD SVG 1.1//EN" "http://www.w3.org/Graphics/SVG/1.1/DTD/svg11.dtd">
<svg xmlns="http://www.w3.org/2000/svg" xmlns:xlink="http://www.w3.org/1999/xlink" version="1.1" width="500" height="500" viewBox="0 0 500 500" xml:space="preserve">
<desc>Created with Fabric.js 4.6.0</desc>
<defs>
</defs>
<g transform="matrix(1 0 0 1 142.59 215.43)" id="abS6iXQfUko3-Pu7FGnXl"  >
<path style="stroke: rgb(255,255,255); stroke-width: 1; stroke-dasharray: none; stroke-linecap: round; stroke-dashoffset: 0; stroke-linejoin: round; stroke-miterlimit: 10; fill: none; fill-rule: nonzero; opacity: 1;" vector-effect="non-scaling-stroke"  transform=" translate(-142.59, -215.43)" d="M 177.77777777777771 130.8399372866676 Q 177.77777777777771 130.8389372866676 177.77777777777771 130.37635641143197 Q 177.77777777777771 129.91377553619634 177.77777777777771 128.9886137857251 Q 177.77777777777771 128.06345203525387 177.77777777777771 127.60087116001827 Q 177.77777777777771 127.13829028478268 176.38888888888883 125.28796678384019 Q 174.99999999999994 123.4376432828977 172.68518518518513 120.66215803148398 Q 170.37037037037032 117.88667278007027 168.51851851851848 116.49893015436339 Q 166.66666666666663 115.11118752865652 164.81481481481478 114.64860665342088 Q 162.96296296296293 114.18602577818525 160.64814814814812 113.72344490294965 Q 158.33333333333331 113.26086402771405 153.70370370370367 113.26086402771405 Q 149.07407407407402 113.26086402771405 146.7592592592592 113.26086402771405 Q 144.4444444444444 113.26086402771405 143.51851851851848 113.26086402771405 Q 142.59259259259255 113.26086402771405 137.96296296296293 114.6486066534209 Q 133.33333333333331 116.03634927912775 127.31481481481478 119.2744154057771 Q 121.29629629629625 122.51248153242646 118.51851851851848 124.36280503336893 Q 115.7407407407407 126.2131285343114 114.35185185185182 127.13829028478264 Q 112.96296296296293 128.06345203525387 111.57407407407405 129.45119466096074 Q 110.18518518518516 130.8389372866676 107.40740740740739 134.07700341331696 Q 104.62962962962962 137.31506953996632 102.31481481481478 141.9408782923225 Q 99.99999999999994 146.5666870446787 99.07407407407402 147.95442967038557 Q 98.1481481481481 149.34217229609243 96.75925925925921 152.11765754750616 Q 95.37037037037032 154.89314279891988 92.12962962962959 161.8318559274542 Q 88.88888888888886 168.77056905598852 86.11111111111109 176.63444393499407 Q 83.33333333333331 184.49831881399962 81.94444444444443 188.66154669112024 Q 80.55555555555554 192.82477456824085 79.62962962962959 200.6886494472464 Q 78.70370370370364 208.55252432625196 78.70370370370364 213.64091395384378 Q 78.70370370370364 218.7293035814356 78.70370370370364 222.89253145855616 Q 78.70370370370364 227.05575933567673 78.70370370370364 232.14414896326858 Q 78.70370370370364 237.23253859086043 78.70370370370364 242.32092821845225 Q 78.70370370370364 247.40931784604408 81.48148148148144 254.3480309745784 Q 84.25925925925924 261.2867441031127 86.11111111111109 266.83771460594016 Q 87.96296296296293 272.38868510876756 90.27777777777774 275.6267512354169 Q 92.59259259259255 278.8648173620663 94.4444444444444 282.56546436395126 Q 96.29629629629625 286.2661113658362 102.77777777777774 291.81708186866365 Q 109.25925925925924 297.3680523714911 117.59259259259255 302.91902287431856 Q 125.92592592592587 308.46999337714607 131.48148148148144 310.78289775332416 Q 137.037037037037 313.09580212950226 145.37037037037032 314.9461256304447 Q 153.70370370370364 316.7964491313872 162.49999999999994 317.2590300066228 Q 171.29629629629625 317.72161088185845 176.85185185185182 317.2590300066228 Q 182.4074074074074 316.7964491313872 183.79629629629628 316.7964491313872 Q 185.18518518518516 316.7964491313872 187.96296296296293 314.9461256304447 Q 190.7407407407407 313.09580212950226 193.05555555555551 312.170640379031 Q 195.37037037037032 311.24547862855974 199.53703703703698 308.93257425238164 Q 203.70370370370364 306.61966987620355 204.16666666666663 305.6945081257323 Q 204.62962962962962 304.769346375261 205.55555555555554 303.8441846247898 L 206.48248148148147 302.9180228743186" stroke-linecap="round" />
</g>
<g transform="matrix(1 0 0 1 244.44 265.98)" id="biLqWYGfRQNzkDJpF1BsG"  >
<path style="stroke: rgb(255,255,255); stroke-width: 1; stroke-dasharray: none; stroke-linecap: round; stroke-dashoffset: 0; stroke-linejoin: round; stroke-miterlimit: 10; fill: none; fill-rule: nonzero; opacity: 1;" vector-effect="non-scaling-stroke"  transform=" translate(-244.44, -265.98)" d="M 211.1121111111111 388.03490391767275 Q 211.1111111111111 388.0339039176728 211.1111111111111 388.4964847929084 Q 211.1111111111111 388.95906566814404 210.18518518518516 387.1087421672015 Q 209.25925925925924 385.25841866625905 207.4074074074074 379.244867288196 Q 205.55555555555554 373.23131591013293 203.2407407407407 367.21776453206985 Q 200.92592592592587 361.20421315400677 196.7592592592592 347.3267868969382 Q 192.59259259259255 333.44936063986955 188.88888888888886 317.72161088185845 Q 185.18518518518516 301.99386112384735 182.87037037037035 289.04159661725 Q 180.55555555555554 276.08933211065255 178.2407407407407 258.5112588516989 Q 175.92592592592587 240.93318559274536 175.4629629629629 231.21898721279732 Q 174.99999999999994 221.50478883284927 174.99999999999994 215.95381833002185 Q 174.99999999999994 210.40284782719442 175.4629629629629 200.68864944724638 Q 175.92592592592587 190.97445106729833 178.70370370370367 183.11057618829278 Q 181.48148148148147 175.24670130928723 188.4259259259259 165.5325029293392 Q 195.37037037037032 155.81830454939114 199.53703703703698 153.04281929797742 Q 203.70370370370364 150.2673340465637 209.72222222222217 147.9544296703856 Q 215.7407407407407 145.6415252942075 229.16666666666663 144.25378266850063 Q 242.59259259259255 142.86604004279377 258.33333333333326 144.25378266850063 Q 274.074074074074 145.6415252942075 277.7777777777777 147.02926791991436 Q 281.48148148148147 148.41701054562122 285.18518518518516 154.43056192368428 Q 288.88888888888886 160.44411330174734 294.4444444444444 173.3963778083447 Q 299.99999999999994 186.34864231494208 304.62962962962956 202.07639207295318 Q 309.2592592592592 217.80414183096428 311.11111111111103 224.7428549594986 Q 312.9629629629629 231.68156808803292 313.42592592592587 239.0828620918029 Q 313.88888888888886 246.48415609557287 313.88888888888886 263.13706760405523 Q 313.88888888888886 279.78997911253754 312.96296296296293 295.51772887054864 Q 312.037037037037 311.24547862855974 311.574074074074 319.1093535075653 Q 311.11111111111103 326.9732283865709 310.6481481481481 337.6125885169902 Q 310.18518518518516 348.2519486474094 310.18518518518516 352.87775739976564 Q 310.18518518518516 357.50356615212183 309.7222222222222 363.5171175301849 Q 309.2592592592592 369.53066890824795 309.2592592592592 372.7687350348973 Q 309.2592592592592 376.00680116154666 309.2592592592592 378.31970553772476 Q 309.2592592592592 380.63260991390285 309.2592592592592 382.0203525396097 Q 309.2592592592592 383.4080951653166 308.33333333333326 383.8706760405522 Q 307.40740740740733 384.3332569157878 305.5555555555555 380.1700290386672 L 303.70270370370366 376.0058011615467" stroke-linecap="round" />
</g>
<g transform="matrix(1 0 0 1 247.22 309.4)" id="jNI_FxC8UVoOv-eqeNh-9"  >
<path style="stroke: rgb(255,255,255); stroke-width: 1; stroke-dasharray: none; stroke-linecap: round; stroke-dashoffset: 0; stroke-linejoin: round; stroke-miterlimit: 10; fill: none; fill-rule: nonzero; opacity: 1;" vector-effect="non-scaling-stroke"  transform=" translate(-247.22, -309.4)" d="M 185.18418518518516 319.5729343828009 Q 185.18518518518516 319.5719343828009 185.18518518518516 319.1093535075653 Q 185.18518518518516 318.64677263232966 186.1111111111111 317.2590300066228 Q 187.037037037037 315.871287380916 187.96296296296293 314.4835447552091 Q 188.88888888888886 313.09580212950226 191.20370370370367 309.8577360028529 Q 193.51851851851848 306.61966987620355 194.4444444444444 304.7693463752611 Q 195.37037037037032 302.91902287431856 196.29629629629625 301.53128024861167 Q 197.22222222222217 300.14353762290483 198.1481481481481 299.2183758724336 Q 199.07407407407402 298.29321412196236 199.99999999999994 297.3680523714911 Q 200.92592592592587 296.44289062101984 201.38888888888883 295.9803097457842 Q 201.8518518518518 295.51772887054864 202.77777777777771 295.05514799531306 Q 203.70370370370364 294.59256712007743 205.55555555555551 293.20482449437054 Q 207.4074074074074 291.81708186866365 210.64814814814812 289.9667583677212 Q 213.88888888888886 288.1164348667787 217.59259259259255 287.19127311630746 Q 221.29629629629625 286.2661113658362 226.85185185185182 285.340949615365 Q 232.4074074074074 284.4157878648938 236.57407407407405 283.95320698965816 Q 240.7407407407407 283.49062611442247 245.37037037037032 283.49062611442247 Q 249.99999999999994 283.49062611442247 253.70370370370367 283.49062611442247 Q 257.4074074074074 283.49062611442247 261.574074074074 283.49062611442247 Q 265.7407407407407 283.49062611442247 267.59259259259255 283.49062611442247 Q 269.4444444444444 283.49062611442247 269.9074074074074 283.49062611442247 Q 270.3703703703703 283.49062611442247 272.2222222222222 284.41578786489373 Q 274.074074074074 285.340949615365 275.46296296296293 286.2661113658362 Q 276.8518518518518 287.19127311630746 277.7777777777777 288.1164348667787 Q 278.70370370370364 289.04159661725 280.55555555555554 290.4293392429568 Q 282.4074074074074 291.81708186866365 284.7222222222222 293.20482449437054 Q 287.037037037037 294.59256712007743 288.42592592592587 296.4428906210199 Q 289.8148148148148 298.29321412196236 291.2037037037037 299.6809567476692 Q 292.59259259259255 301.06869937337603 294.4444444444444 303.3816037495542 Q 296.29629629629625 305.6945081257323 296.75925925925924 307.0822507514392 Q 297.2222222222222 308.46999337714607 297.6851851851851 308.93257425238164 Q 298.1481481481481 309.3951551276173 298.6111111111111 309.8577360028529 Q 299.074074074074 310.3203168780885 299.53703703703695 312.17064037903094 Q 299.99999999999994 314.02096387997346 301.3888888888888 315.40870650568036 Q 302.7777777777777 316.7964491313872 303.24074074074065 318.184191757094 Q 303.70370370370364 319.5719343828009 303.70370370370364 320.9596770085078 Q 303.70370370370364 322.3474196342147 304.16666666666663 323.73516225992154 Q 304.6296296296296 325.1229048856284 305.55555555555554 326.5106475113352 Q 306.48148148148147 327.89839013704204 306.48148148148147 328.8235518875133 Q 306.48148148148147 329.74871363798457 306.9444444444444 330.2112945132202 Q 307.40740740740733 330.6738753884558 307.40740740740733 331.13645626369146 Q 307.40740740740733 331.5990371389271 307.8703703703703 331.5990371389271 Q 308.3333333333333 331.5990371389271 308.79629629629625 332.06161801416266 Q 309.2592592592592 332.52419888939824 309.2592592592592 333.9119415151051 L 309.2592592592592 335.300684140812" stroke-linecap="round" />
</g>
</svg>