<?xml version="1.0" encoding="UTF-8" standalone="no" ?>
<!DOCTYPE svg PUBLIC "-//W3C//DTD SVG 1.1//EN" "http://www.w3.org/Graphics/SVG/1.1/DTD/svg11.dtd">
<svg xmlns="http://www.w3.org/2000/svg" xmlns:xlink="http://www.w3.org/1999/xlink" version="1.1" width="500" height="500" viewBox="0 0 500 500" xml:space="preserve">
<desc>Created with Fabric.js 4.6.0</desc>
<defs>
</defs>
<g transform="matrix(1 0 0 1 213.72 303.79)" id="JdI2kFwUCeEFUibZ8yiqo"  >
<path style="stroke: rgb(0,0,0); stroke-width: 1; stroke-dasharray: none; stroke-linecap: round; stroke-dashoffset: 0; stroke-linejoin: round; stroke-miterlimit: 10; fill: none; fill-rule: nonzero; opacity: 1;" vector-effect="non-scaling-stroke"  transform=" translate(-213.72, -303.79)" d="M 79.94679945799456 169.9263939811175 Q 79.94579945799455 169.9253939811175 79.94579945799455 169.03299589077596 Q 79.94579945799455 168.14059780043442 79.05294231513741 167.24819971009288 Q 78.16008517228028 166.35580161975133 77.26722802942314 165.46340352940982 Q 76.374370886566 164.5710054390683 76.374370886566 163.67860734872676 Q 76.374370886566 162.7862092583852 75.48151374370886 161.8938111680437 Q 74.58865660085172 161.00141307770218 72.80294231513741 161.00141307770218 Q 71.01722802942311 161.00141307770218 70.12437088656597 161.00141307770218 Q 69.23151374370883 161.00141307770218 68.33865660085169 161.00141307770218 Q 67.44579945799455 161.00141307770218 66.55294231513741 161.00141307770218 Q 65.66008517228028 161.00141307770218 63.874370886566 161.00141307770218 Q 62.08865660085172 161.00141307770218 60.302942315137415 161.00141307770218 Q 58.51722802942311 161.00141307770218 55.83865660085169 161.00141307770218 Q 53.160085172280276 161.00141307770218 51.374370886566 161.00141307770218 Q 49.58865660085172 161.00141307770218 47.802942315137415 161.00141307770218 Q 46.01722802942311 161.00141307770218 45.12437088656597 161.00141307770218 Q 44.23151374370883 161.00141307770218 43.33865660085169 161.00141307770218 Q 42.44579945799455 161.00141307770218 41.552942315137415 161.8938111680437 Q 40.660085172280276 162.7862092583852 39.76722802942314 163.67860734872676 Q 38.874370886566 164.5710054390683 37.98151374370886 164.5710054390683 Q 37.08865660085172 164.5710054390683 36.19579945799458 166.35580161975136 Q 35.30294231513744 168.14059780043442 34.410085172280276 169.03299589077596 Q 33.51722802942311 169.9253939811175 32.62437088656597 170.81779207145902 Q 31.73151374370883 171.71019016180054 30.838656600851692 173.49498634248363 Q 29.945799457994553 175.27978252316672 29.052942315137415 175.27978252316672 Q 28.160085172280276 175.27978252316672 26.374370886566 177.9569767941913 Q 24.58865660085172 180.63417106521587 23.695799457994553 182.41896724589895 Q 22.802942315137386 184.20376342658204 21.910085172280247 186.88095769760665 Q 21.01722802942311 189.55815196863125 19.23151374370883 190.45055005897282 Q 17.445799457994553 191.3429481493144 16.552942315137415 194.91254051068051 Q 15.660085172280276 198.48213287204663 14.767228029423137 200.26692905272967 Q 13.874370886565998 202.0517252334127 12.98151374370886 202.94412332375427 Q 12.08865660085172 203.83652141409584 12.08865660085172 204.72891950443739 Q 12.08865660085172 205.62131759477893 11.195799457994553 208.29851186580348 Q 10.302942315137386 210.97570613682802 10.302942315137386 212.76050231751114 Q 10.302942315137386 214.54529849819426 10.302942315137386 216.33009467887734 Q 10.302942315137386 218.11489085956043 10.302942315137386 219.8996870402435 Q 10.302942315137386 221.68448322092655 10.302942315137386 223.46927940160958 Q 10.302942315137386 225.25407558229261 10.302942315137386 227.93126985331725 Q 10.302942315137386 230.60846412434188 10.302942315137386 234.17805648570803 Q 10.302942315137386 237.74764884707417 9.410085172280247 238.6400469374157 Q 8.517228029423109 239.5324450277572 8.517228029423109 243.10203738912335 Q 8.517228029423109 246.6716297504895 8.517228029423109 248.4564259311726 Q 8.517228029423109 250.24122211185568 8.517228029423109 252.02601829253877 Q 8.517228029423109 253.81081447322185 8.517228029423109 255.59561065390488 Q 8.517228029423109 257.3804068345879 7.62437088656597 259.165203015271 Q 6.731513743708831 260.9499991959541 6.731513743708831 262.7347953766371 Q 6.731513743708831 264.51959155732015 6.731513743708831 265.4119896476617 Q 6.731513743708831 266.30438773800324 7.62437088656597 268.08918391868633 Q 8.517228029423109 269.8739800993694 9.410085172280247 270.76637818971096 Q 10.302942315137386 271.6587762800525 10.302942315137386 272.551174370394 Q 10.302942315137386 273.4435724607355 10.302942315137386 274.3359705510771 Q 10.302942315137386 275.2283686414187 11.195799457994553 277.0131648221017 Q 12.08865660085172 278.79796100278475 13.874370886565998 280.58275718346783 Q 15.660085172280276 282.3675533641509 16.552942315137415 283.25995145449247 Q 17.445799457994553 284.152349544834 17.445799457994553 285.04474763517555 Q 17.445799457994553 285.9371457255171 18.338656600851692 287.72194190620013 Q 19.23151374370883 289.50673808688316 21.01722802942311 290.3991361772247 Q 22.802942315137386 291.29153426756625 23.695799457994553 293.07633044824934 Q 24.58865660085172 294.8611266289324 25.48151374370886 295.7535247192739 Q 26.374370886566 296.6459228096154 28.160085172280276 298.4307189902985 Q 29.945799457994553 300.2155151709816 30.838656600851692 302.00031135166466 Q 31.73151374370883 303.78510753234775 33.51722802942314 303.78510753234775 Q 35.30294231513744 303.78510753234775 37.08865660085172 303.78510753234775 Q 38.874370886566 303.78510753234775 40.660085172280276 304.6775056226893 Q 42.44579945799455 305.56990371303084 44.23151374370883 306.4623018033724 Q 46.01722802942311 307.3546998937139 47.802942315137415 307.3546998937139 Q 49.58865660085172 307.3546998937139 51.374370886566 308.2470979840555 Q 53.160085172280276 309.139496074397 54.052942315137415 309.139496074397 Q 54.94579945799455 309.139496074397 56.73151374370883 309.139496074397 Q 58.51722802942311 309.139496074397 61.19579945799455 310.0318941647385 Q 63.874370886566 310.92429225508 65.66008517228028 310.92429225508 Q 67.44579945799455 310.92429225508 69.23151374370883 310.92429225508 Q 71.01722802942311 310.92429225508 71.91008517228028 310.92429225508 Q 72.80294231513744 310.92429225508 76.374370886566 310.92429225508 Q 79.94579945799455 310.92429225508 81.73151374370883 310.92429225508 Q 83.51722802942311 310.92429225508 88.87437088656597 308.2470979840554 Q 94.23151374370883 305.56990371303084 96.01722802942314 304.6775056226893 Q 97.80294231513744 303.78510753234775 101.374370886566 301.1079132613232 Q 104.94579945799455 298.4307189902986 109.41008517228028 295.75352471927397 Q 113.874370886566 293.07633044824934 114.76722802942314 292.1839323579078 Q 115.66008517228028 291.29153426756625 116.55294231513741 291.29153426756625 Q 117.44579945799455 291.29153426756625 117.44579945799455 290.3991361772247 Q 117.44579945799455 289.50673808688316 118.33865660085169 289.50673808688316 Q 119.23151374370883 289.50673808688316 121.91008517228028 286.8295438158586 Q 124.58865660085172 284.152349544834 128.16008517228028 280.5827571834679 Q 131.73151374370883 277.01316482210177 132.62437088656597 274.33597055107714 Q 133.5172280294231 271.6587762800525 134.41008517228028 269.8739800993694 Q 135.30294231513744 268.08918391868633 135.30294231513744 265.41198964766176 Q 135.30294231513744 262.7347953766372 135.30294231513744 260.9499991959541 Q 135.30294231513744 259.165203015271 135.30294231513744 257.3804068345879 Q 135.30294231513744 255.59561065390483 135.30294231513744 253.8108144732218 Q 135.30294231513744 252.02601829253877 135.30294231513744 249.34882402151413 Q 135.30294231513744 246.6716297504895 134.41008517228028 243.99443547946493 Q 133.5172280294231 241.31724120844035 132.62437088656597 240.42484311809878 Q 131.73151374370883 239.5324450277572 131.73151374370883 237.74764884707417 Q 131.73151374370883 235.96285266639114 130.8386566008517 234.17805648570803 Q 129.94579945799455 232.3932603050249 129.05294231513741 232.3932603050249 Q 128.16008517228028 232.3932603050249 126.374370886566 230.60846412434188 Q 124.58865660085172 228.82366794365885 124.58865660085172 227.9312698533173 Q 124.58865660085172 227.03887176297576 121.01722802942314 227.03887176297576 Q 117.44579945799455 227.03887176297576 116.55294231513741 227.03887176297576 Q 115.66008517228028 227.03887176297576 112.98151374370886 227.9312698533173 Q 110.30294231513744 228.82366794365885 110.30294231513744 229.71606603400036 Q 110.30294231513744 230.60846412434188 110.30294231513744 231.5008622146834 Q 110.30294231513744 232.3932603050249 109.41008517228028 235.96285266639106 Q 108.51722802942311 239.5324450277572 108.51722802942311 242.20963929878184 Q 108.51722802942311 244.88683356980647 108.51722802942311 245.77923166014799 Q 108.51722802942311 246.6716297504895 108.51722802942311 247.56402784083102 Q 108.51722802942311 248.45642593117253 108.51722802942311 251.1336202021972 Q 108.51722802942311 253.81081447322185 108.51722802942311 257.380406834588 Q 108.51722802942311 260.9499991959541 108.51722802942311 264.5195915573202 Q 108.51722802942311 268.08918391868633 108.51722802942311 269.8739800993694 Q 108.51722802942311 271.6587762800525 108.51722802942311 273.4435724607356 Q 108.51722802942311 275.2283686414187 108.51722802942311 278.7979610027848 Q 108.51722802942311 282.3675533641509 108.51722802942311 285.93714572551704 Q 108.51722802942311 289.50673808688316 108.51722802942311 293.0763304482493 Q 108.51722802942311 296.6459228096154 108.51722802942311 298.4307189902985 Q 108.51722802942311 300.2155151709816 108.51722802942311 302.00031135166466 Q 108.51722802942311 303.78510753234775 108.51722802942311 307.35469989371387 Q 108.51722802942311 310.92429225508 108.51722802942311 312.70908843576314 Q 108.51722802942311 314.4938846164463 108.51722802942311 316.2786807971293 Q 108.51722802942311 318.06347697781234 108.51722802942311 319.84827315849543 Q 108.51722802942311 321.6330693391785 108.51722802942311 325.20266170054464 Q 108.51722802942311 328.77225406191076 108.51722802942311 330.55705024259385 Q 108.51722802942311 332.34184642327693 108.51722802942311 334.12664260395997 Q 108.51722802942311 335.911438784643 108.51722802942311 337.6962349653261 Q 108.51722802942311 339.4810311460092 108.51722802942311 336.80383687498454 Q 108.51722802942311 334.1266426039599 108.51722802942311 332.3418464232769 Q 108.51722802942311 330.55705024259385 108.51722802942311 326.9874578812277 Q 108.51722802942311 323.4178655198616 108.51722802942311 320.740671248837 Q 108.51722802942311 318.06347697781234 108.51722802942311 317.17107888747074 Q 108.51722802942311 316.27868079712914 109.41008517228028 314.4938846164461 Q 110.30294231513744 312.7090884357631 110.30294231513744 311.81669034542153 Q 110.30294231513744 310.92429225508 111.19579945799458 309.13949607439696 Q 112.08865660085172 307.3546998937139 112.98151374370886 306.4623018033724 Q 113.874370886566 305.56990371303084 114.76722802942314 305.56990371303084 Q 115.66008517228028 305.56990371303084 116.55294231513741 304.6775056226893 Q 117.44579945799455 303.78510753234775 118.33865660085169 303.78510753234775 Q 119.23151374370883 303.78510753234775 120.12437088656597 303.78510753234775 Q 121.01722802942311 303.78510753234775 121.91008517228028 303.78510753234775 Q 122.80294231513744 303.78510753234775 124.58865660085172 303.78510753234775 Q 126.374370886566 303.78510753234775 128.16008517228028 303.78510753234775 Q 129.94579945799455 303.78510753234775 130.8386566008517 303.78510753234775 Q 131.73151374370883 303.78510753234775 134.41008517228028 306.4623018033724 Q 137.08865660085172 309.139496074397 137.98151374370886 312.7090884357631 Q 138.874370886566 316.27868079712914 138.874370886566 317.17107888747074 Q 138.874370886566 318.06347697781234 138.874370886566 321.6330693391784 Q 138.874370886566 325.20266170054447 138.874370886566 327.87985597156916 Q 138.874370886566 330.55705024259385 138.874370886566 332.3418464232769 Q 138.874370886566 334.1266426039599 138.874370886566 335.911438784643 Q 138.874370886566 337.6962349653261 138.874370886566 338.58863305566763 Q 138.874370886566 339.4810311460092 139.76722802942314 341.2658273266922 Q 140.66008517228028 343.05062350737524 142.44579945799455 344.8354196880583 Q 144.23151374370883 346.6202158687414 145.12437088656597 348.4050120494245 Q 146.0172280294231 350.1898082301076 147.80294231513741 351.08220632044913 Q 149.58865660085172 351.9746044107907 152.26722802942314 351.9746044107907 Q 154.94579945799455 351.9746044107907 155.8386566008517 351.9746044107907 Q 156.73151374370883 351.9746044107907 158.51722802942314 351.9746044107907 Q 160.30294231513744 351.9746044107907 160.30294231513744 351.08220632044913 Q 160.30294231513744 350.1898082301076 160.30294231513744 348.4050120494245 Q 160.30294231513744 346.6202158687414 160.30294231513744 343.0506235073753 Q 160.30294231513744 339.4810311460092 160.30294231513744 335.91143878464305 Q 160.30294231513744 332.34184642327693 161.19579945799455 329.6646521522523 Q 162.08865660085166 326.98745788122767 162.98151374370883 325.20266170054464 Q 163.874370886566 323.4178655198616 164.76722802942317 320.740671248837 Q 165.66008517228033 318.06347697781234 166.55294231513744 315.3862827067877 Q 167.44579945799455 312.7090884357631 167.44579945799455 311.81669034542153 Q 167.44579945799455 310.92429225508 169.23151374370883 309.13949607439696 Q 171.0172280294231 307.3546998937139 172.8029423151374 305.56990371303084 Q 174.58865660085166 303.78510753234775 174.58865660085166 302.8927094420062 Q 174.58865660085166 302.00031135166466 176.374370886566 302.00031135166466 Q 178.16008517228033 302.00031135166466 179.05294231513744 302.00031135166466 Q 179.94579945799455 302.00031135166466 181.73151374370883 302.00031135166466 Q 183.5172280294231 302.00031135166466 186.19579945799455 302.00031135166466 Q 188.874370886566 302.00031135166466 190.66008517228028 302.8927094420062 Q 192.44579945799455 303.78510753234775 194.23151374370883 306.4623018033724 Q 196.0172280294231 309.139496074397 196.0172280294231 310.0318941647385 Q 196.0172280294231 310.92429225508 196.91008517228028 310.92429225508 Q 197.80294231513744 310.92429225508 197.80294231513744 311.81669034542153 Q 197.80294231513744 312.7090884357631 196.91008517228028 311.81669034542153 Q 196.0172280294231 310.92429225508 196.0172280294231 310.0318941647385 Q 196.0172280294231 309.139496074397 194.23151374370883 306.4623018033724 Q 192.44579945799455 303.78510753234775 190.66008517228028 302.00031135166466 Q 188.874370886566 300.2155151709816 187.98151374370883 299.3231170806401 Q 187.08865660085166 298.4307189902986 184.41008517228028 297.538320899957 Q 181.7315137437089 296.6459228096154 179.9457994579946 296.6459228096154 Q 178.16008517228033 296.6459228096154 176.374370886566 296.6459228096154 Q 174.58865660085166 296.6459228096154 173.69579945799455 296.6459228096154 Q 172.80294231513744 296.6459228096154 171.91008517228028 296.6459228096154 Q 171.0172280294231 296.6459228096154 171.0172280294231 298.4307189902985 Q 171.0172280294231 300.2155151709816 171.0172280294231 302.00031135166466 Q 171.0172280294231 303.78510753234775 171.0172280294231 304.6775056226893 Q 171.0172280294231 305.56990371303084 171.0172280294231 307.3546998937139 Q 171.0172280294231 309.139496074397 171.0172280294231 310.92429225508005 Q 171.0172280294231 312.7090884357631 171.0172280294231 315.3862827067877 Q 171.0172280294231 318.06347697781234 171.0172280294231 319.84827315849543 Q 171.0172280294231 321.6330693391785 171.0172280294231 323.4178655198615 Q 171.0172280294231 325.20266170054447 171.0172280294231 326.09505979088607 Q 171.0172280294231 326.98745788122767 171.0172280294231 329.6646521522523 Q 171.0172280294231 332.34184642327693 171.0172280294231 334.12664260395997 Q 171.0172280294231 335.911438784643 171.91008517228028 336.80383687498454 Q 172.80294231513744 337.6962349653261 172.80294231513744 338.58863305566763 Q 172.80294231513744 339.4810311460092 173.69579945799455 340.3734292363507 Q 174.58865660085166 341.26582732669226 175.48151374370883 341.26582732669226 Q 176.374370886566 341.26582732669226 177.26722802942317 341.26582732669226 Q 178.16008517228033 341.26582732669226 179.9457994579946 341.26582732669226 Q 181.7315137437089 341.26582732669226 182.624370886566 341.26582732669226 Q 183.5172280294231 341.26582732669226 185.3029423151374 340.3734292363507 Q 187.08865660085166 339.4810311460092 187.08865660085166 338.58863305566763 Q 187.08865660085166 337.6962349653261 187.08865660085166 336.80383687498454 Q 187.08865660085166 335.911438784643 187.98151374370883 335.01904069430145 Q 188.874370886566 334.1266426039599 188.874370886566 332.3418464232769 Q 188.874370886566 330.55705024259385 188.874370886566 328.77225406191076 Q 188.874370886566 326.98745788122767 188.874370886566 326.09505979088607 Q 188.874370886566 325.20266170054447 188.874370886566 323.4178655198615 Q 188.874370886566 321.6330693391785 189.76722802942317 319.84827315849543 Q 190.66008517228033 318.06347697781234 190.66008517228033 316.2786807971293 Q 190.66008517228033 314.4938846164463 190.66008517228033 312.70908843576314 Q 190.66008517228033 310.92429225508 190.66008517228033 310.0318941647385 Q 190.66008517228033 309.139496074397 190.66008517228033 308.2470979840555 Q 190.66008517228033 307.3546998937139 190.66008517228033 306.4623018033724 Q 190.66008517228033 305.56990371303084 190.66008517228033 304.6775056226893 Q 190.66008517228033 303.78510753234775 191.55294231513744 302.8927094420062 Q 192.44579945799455 302.00031135166466 194.23151374370883 301.1079132613231 Q 196.0172280294231 300.2155151709816 196.0172280294231 299.3231170806401 Q 196.0172280294231 298.4307189902986 196.91008517228028 298.4307189902986 Q 197.80294231513744 298.4307189902986 197.80294231513744 299.3231170806401 Q 197.80294231513744 300.2155151709816 198.69579945799455 300.2155151709816 Q 199.58865660085166 300.2155151709816 200.48151374370883 302.00031135166466 Q 201.374370886566 303.78510753234775 201.374370886566 304.6775056226893 Q 201.374370886566 305.56990371303084 201.374370886566 307.3546998937139 Q 201.374370886566 309.139496074397 202.26722802942317 310.0318941647385 Q 203.16008517228033 310.92429225508 203.16008517228033 312.70908843576314 Q 203.16008517228033 314.4938846164463 203.16008517228033 315.3862827067877 Q 203.16008517228033 316.27868079712914 203.16008517228033 317.17107888747074 Q 203.16008517228033 318.06347697781234 204.05294231513744 318.95587506815383 Q 204.94579945799455 319.8482731584953 205.83865660085172 321.63306933917846 Q 206.7315137437089 323.4178655198616 207.624370886566 324.31026361020304 Q 208.5172280294231 325.20266170054447 209.41008517228028 326.09505979088607 Q 210.30294231513744 326.98745788122767 210.30294231513744 328.77225406191076 Q 210.30294231513744 330.55705024259385 212.08865660085172 331.4494483329354 Q 213.874370886566 332.34184642327693 215.66008517228028 334.12664260395997 Q 217.44579945799455 335.911438784643 218.33865660085172 337.6962349653261 Q 219.2315137437089 339.4810311460092 221.91008517228028 340.3734292363507 Q 224.58865660085166 341.26582732669226 226.374370886566 341.26582732669226 Q 228.16008517228033 341.26582732669226 229.9457994579946 341.26582732669226 Q 231.7315137437089 341.26582732669226 232.624370886566 341.26582732669226 Q 233.5172280294231 341.26582732669226 236.19579945799455 339.4810311460092 Q 238.874370886566 337.6962349653261 239.76722802942317 335.0190406943015 Q 240.66008517228033 332.34184642327693 241.55294231513744 330.55705024259385 Q 242.44579945799455 328.77225406191076 242.44579945799455 326.0950597908862 Q 242.44579945799455 323.4178655198616 242.44579945799455 318.95587506815394 Q 242.44579945799455 314.4938846164463 242.44579945799455 309.139496074397 Q 242.44579945799455 303.78510753234775 242.44579945799455 299.3231170806401 Q 242.44579945799455 294.8611266289324 242.44579945799455 289.5067380868832 Q 242.44579945799455 284.152349544834 242.44579945799455 279.69035909312635 Q 242.44579945799455 275.2283686414187 242.44579945799455 272.55117437039405 Q 242.44579945799455 269.8739800993694 242.44579945799455 267.1967858283448 Q 242.44579945799455 264.51959155732015 242.44579945799455 260.94999919595404 Q 242.44579945799455 257.3804068345879 242.44579945799455 252.0260182925387 Q 242.44579945799455 246.6716297504895 242.44579945799455 243.10203738912335 Q 242.44579945799455 239.5324450277572 242.44579945799455 238.6400469374157 Q 242.44579945799455 237.74764884707417 242.44579945799455 236.85525075673266 Q 242.44579945799455 235.96285266639114 242.44579945799455 235.07045457604957 Q 242.44579945799455 234.178056485708 241.55294231513744 234.178056485708 Q 240.66008517228033 234.178056485708 239.76722802942317 234.178056485708 Q 238.874370886566 234.178056485708 238.874370886566 235.07045457604957 Q 238.874370886566 235.96285266639114 238.874370886566 237.74764884707417 Q 238.874370886566 239.5324450277572 238.874370886566 242.20963929878184 Q 238.874370886566 244.88683356980647 238.874370886566 249.34882402151416 Q 238.874370886566 253.81081447322185 238.874370886566 256.48800874424643 Q 238.874370886566 259.165203015271 238.874370886566 260.9499991959541 Q 238.874370886566 262.7347953766372 238.874370886566 265.41198964766176 Q 238.874370886566 268.08918391868633 238.874370886566 268.9815820090279 Q 238.874370886566 269.8739800993694 238.874370886566 272.55117437039405 Q 238.874370886566 275.2283686414187 238.874370886566 277.0131648221017 Q 238.874370886566 278.79796100278475 238.874370886566 281.4751552738094 Q 238.874370886566 284.152349544834 238.874370886566 286.8295438158586 Q 238.874370886566 289.50673808688316 238.874370886566 293.0763304482493 Q 238.874370886566 296.6459228096154 238.874370886566 297.538320899957 Q 238.874370886566 298.4307189902986 238.874370886566 301.1079132613232 Q 238.874370886566 303.78510753234775 238.874370886566 306.4623018033724 Q 238.874370886566 309.139496074397 238.874370886566 312.7090884357631 Q 238.874370886566 316.27868079712914 238.874370886566 318.95587506815383 Q 238.874370886566 321.6330693391785 238.874370886566 323.4178655198615 Q 238.874370886566 325.20266170054447 238.874370886566 327.87985597156916 Q 238.874370886566 330.55705024259385 240.66008517228028 331.4494483329354 Q 242.44579945799455 332.34184642327693 243.33865660085172 334.12664260395997 Q 244.2315137437089 335.911438784643 245.124370886566 336.80383687498454 Q 246.0172280294231 337.6962349653261 246.91008517228028 338.58863305566763 Q 247.80294231513744 339.4810311460092 251.374370886566 339.4810311460092 Q 254.94579945799455 339.4810311460092 256.73151374370883 339.4810311460092 Q 258.5172280294231 339.4810311460092 259.4100851722803 339.4810311460092 Q 260.30294231513744 339.4810311460092 262.9815137437089 339.4810311460092 Q 265.66008517228033 339.4810311460092 266.55294231513744 339.4810311460092 Q 267.44579945799455 339.4810311460092 268.3386566008517 338.58863305566763 Q 269.2315137437089 337.6962349653261 270.124370886566 335.911438784643 Q 271.0172280294231 334.1266426039599 271.9100851722803 331.44944833293533 Q 272.80294231513744 328.77225406191076 273.69579945799455 326.9874578812276 Q 274.58865660085166 325.20266170054447 274.58865660085166 321.6330693391784 Q 274.58865660085166 318.06347697781234 275.48151374370883 314.49388461644617 Q 276.374370886566 310.92429225508 276.374370886566 309.13949607439696 Q 276.374370886566 307.3546998937139 276.374370886566 305.56990371303084 Q 276.374370886566 303.78510753234775 276.374370886566 298.43071899029854 Q 276.374370886566 293.07633044824934 276.374370886566 292.1839323579078 Q 276.374370886566 291.29153426756625 276.374370886566 286.8295438158586 Q 276.374370886566 282.3675533641509 276.374370886566 278.7979610027848 Q 276.374370886566 275.2283686414187 276.374370886566 271.6587762800525 Q 276.374370886566 268.08918391868633 276.374370886566 265.41198964766176 Q 276.374370886566 262.7347953766372 276.374370886566 260.9499991959541 Q 276.374370886566 259.165203015271 276.374370886566 257.3804068345879 Q 276.374370886566 255.59561065390483 276.374370886566 254.70321256356334 Q 276.374370886566 253.81081447322185 275.48151374370883 252.02601829253877 Q 274.58865660085166 250.24122211185568 274.58865660085166 249.3488240215141 Q 274.58865660085166 248.45642593117253 273.69579945799455 248.45642593117253 Q 272.80294231513744 248.45642593117253 271.9100851722803 250.24122211185565 Q 271.0172280294231 252.02601829253877 271.0172280294231 254.70321256356334 Q 271.0172280294231 257.3804068345879 271.0172280294231 259.165203015271 Q 271.0172280294231 260.9499991959541 271.0172280294231 263.62719346697867 Q 271.0172280294231 266.30438773800324 271.0172280294231 267.1967858283448 Q 271.0172280294231 268.08918391868633 271.0172280294231 270.7663781897109 Q 271.0172280294231 273.4435724607355 271.0172280294231 275.2283686414186 Q 271.0172280294231 277.01316482210177 271.0172280294231 279.69035909312635 Q 271.0172280294231 282.3675533641509 271.0172280294231 285.0447476351755 Q 271.0172280294231 287.7219419062001 271.0172280294231 290.3991361772247 Q 271.0172280294231 293.07633044824934 271.0172280294231 296.64592280961546 Q 271.0172280294231 300.2155151709816 271.0172280294231 303.78510753234775 Q 271.0172280294231 307.3546998937139 271.0172280294231 309.13949607439696 Q 271.0172280294231 310.92429225508 271.0172280294231 313.60148652610457 Q 271.0172280294231 316.27868079712914 271.0172280294231 317.17107888747074 Q 271.0172280294231 318.06347697781234 271.9100851722803 319.84827315849543 Q 272.80294231513744 321.6330693391785 272.80294231513744 323.4178655198615 Q 272.80294231513744 325.20266170054447 272.80294231513744 326.09505979088607 Q 272.80294231513744 326.98745788122767 273.69579945799455 329.6646521522523 Q 274.58865660085166 332.34184642327693 275.48151374370883 333.2342445136184 Q 276.374370886566 334.1266426039599 277.26722802942317 335.01904069430145 Q 278.16008517228033 335.911438784643 279.05294231513744 336.80383687498454 Q 279.94579945799455 337.6962349653261 280.8386566008517 338.58863305566763 Q 281.7315137437089 339.4810311460092 282.624370886566 340.3734292363507 Q 283.5172280294231 341.26582732669226 286.19579945799455 341.26582732669226 Q 288.874370886566 341.26582732669226 289.76722802942317 341.26582732669226 Q 290.66008517228033 341.26582732669226 292.4457994579946 340.3734292363507 Q 294.2315137437089 339.4810311460092 295.124370886566 336.80383687498454 Q 296.0172280294231 334.1266426039599 296.0172280294231 333.2342445136184 Q 296.0172280294231 332.34184642327693 296.9100851722803 330.55705024259385 Q 297.80294231513744 328.77225406191076 297.80294231513744 326.9874578812276 Q 297.80294231513744 325.20266170054447 298.69579945799455 321.6330693391784 Q 299.58865660085166 318.06347697781234 300.48151374370883 314.49388461644617 Q 301.374370886566 310.92429225508 301.374370886566 309.13949607439696 Q 301.374370886566 307.3546998937139 301.374370886566 305.56990371303084 Q 301.374370886566 303.78510753234775 301.374370886566 301.1079132613232 Q 301.374370886566 298.4307189902986 301.374370886566 297.538320899957 Q 301.374370886566 296.6459228096154 300.48151374370883 297.538320899957 Q 299.58865660085166 298.4307189902986 299.58865660085166 300.21551517098163 Q 299.58865660085166 302.00031135166466 299.58865660085166 302.8927094420062 Q 299.58865660085166 303.78510753234775 299.58865660085166 305.56990371303084 Q 299.58865660085166 307.3546998937139 299.58865660085166 309.13949607439696 Q 299.58865660085166 310.92429225508 299.58865660085166 313.60148652610457 Q 299.58865660085166 316.27868079712914 299.58865660085166 318.06347697781223 Q 299.58865660085166 319.8482731584953 299.58865660085166 322.5254674295199 Q 299.58865660085166 325.20266170054447 299.58865660085166 326.09505979088607 Q 299.58865660085166 326.98745788122767 299.58865660085166 329.6646521522523 Q 299.58865660085166 332.34184642327693 299.58865660085166 333.2342445136184 Q 299.58865660085166 334.1266426039599 299.58865660085166 335.911438784643 Q 299.58865660085166 337.6962349653261 299.58865660085166 338.58863305566763 Q 299.58865660085166 339.4810311460092 300.48151374370883 341.2658273266922 Q 301.374370886566 343.05062350737524 302.26722802942317 343.9430215977168 Q 303.16008517228033 344.8354196880583 304.9457994579946 344.8354196880583 Q 306.7315137437089 344.8354196880583 307.624370886566 343.0506235073753 Q 308.5172280294231 341.26582732669226 309.4100851722803 337.6962349653261 Q 310.30294231513744 334.1266426039599 310.30294231513744 332.3418464232769 Q 310.30294231513744 330.55705024259385 310.30294231513744 326.9874578812277 Q 310.30294231513744 323.4178655198616 311.19579945799455 320.740671248837 Q 312.08865660085166 318.06347697781234 312.08865660085166 314.49388461644617 Q 312.08865660085166 310.92429225508 313.874370886566 307.35469989371387 Q 315.66008517228033 303.78510753234775 316.55294231513744 303.78510753234775 Q 317.44579945799455 303.78510753234775 318.3386566008517 303.78510753234775 Q 319.2315137437089 303.78510753234775 320.124370886566 303.78510753234775 Q 321.0172280294231 303.78510753234775 323.69579945799455 303.78510753234775 Q 326.374370886566 303.78510753234775 327.26722802942317 305.56990371303084 Q 328.16008517228033 307.3546998937139 328.16008517228033 310.9242922550801 Q 328.16008517228033 314.4938846164463 328.16008517228033 316.2786807971293 Q 328.16008517228033 318.06347697781234 328.16008517228033 321.6330693391784 Q 328.16008517228033 325.20266170054447 328.16008517228033 326.09505979088607 Q 328.16008517228033 326.98745788122767 328.16008517228033 327.8798559715692 Q 328.16008517228033 328.77225406191076 328.16008517228033 329.6646521522523 Q 328.16008517228033 330.55705024259385 328.16008517228033 332.3418464232769 Q 328.16008517228033 334.1266426039599 328.16008517228033 336.80383687498454 Q 328.16008517228033 339.4810311460092 328.16008517228033 340.3734292363507 Q 328.16008517228033 341.26582732669226 328.16008517228033 340.3734292363507 Q 328.16008517228033 339.4810311460092 328.16008517228033 337.6962349653261 Q 328.16008517228033 335.911438784643 328.16008517228033 334.12664260395997 Q 328.16008517228033 332.34184642327693 328.16008517228033 326.9874578812277 Q 328.16008517228033 321.6330693391785 328.16008517228033 319.84827315849543 Q 328.16008517228033 318.06347697781234 328.16008517228033 315.3862827067877 Q 328.16008517228033 312.7090884357631 328.16008517228033 310.0318941647385 Q 328.16008517228033 307.3546998937139 328.16008517228033 305.56990371303084 Q 328.16008517228033 303.78510753234775 329.9457994579946 302.00031135166466 Q 331.7315137437089 300.2155151709816 331.7315137437089 299.3231170806401 Q 331.7315137437089 298.4307189902986 332.624370886566 298.4307189902986 Q 333.5172280294231 298.4307189902986 335.3029423151374 298.4307189902986 Q 337.08865660085166 298.4307189902986 337.98151374370883 298.4307189902986 Q 338.874370886566 298.4307189902986 340.6600851722803 300.21551517098163 Q 342.44579945799455 302.00031135166466 343.3386566008517 303.78510753234775 Q 344.2315137437089 305.56990371303084 345.124370886566 308.2470979840554 Q 346.0172280294231 310.92429225508 346.0172280294231 314.49388461644617 Q 346.0172280294231 318.06347697781234 346.0172280294231 319.84827315849543 Q 346.0172280294231 321.6330693391785 346.0172280294231 325.20266170054464 Q 346.0172280294231 328.77225406191076 346.0172280294231 330.55705024259385 Q 346.0172280294231 332.34184642327693 346.0172280294231 334.12664260395997 Q 346.0172280294231 335.911438784643 346.0172280294231 336.80383687498454 Q 346.0172280294231 337.6962349653261 346.0172280294231 338.58863305566763 Q 346.0172280294231 339.4810311460092 346.9100851722803 340.3734292363507 Q 347.80294231513744 341.26582732669226 349.5886566008517 342.15822541703375 Q 351.374370886566 343.05062350737524 354.94579945799455 343.05062350737524 Q 358.5172280294231 343.05062350737524 359.4100851722803 343.05062350737524 Q 360.30294231513744 343.05062350737524 362.0886566008517 342.15822541703375 Q 363.874370886566 341.26582732669226 365.6600851722803 340.3734292363507 Q 367.44579945799455 339.4810311460092 367.44579945799455 335.91143878464305 Q 367.44579945799455 332.34184642327693 367.44579945799455 331.4494483329354 Q 367.44579945799455 330.55705024259385 367.44579945799455 329.6646521522523 Q 367.44579945799455 328.77225406191076 367.44579945799455 326.0950597908862 Q 367.44579945799455 323.4178655198616 367.44579945799455 320.740671248837 Q 367.44579945799455 318.06347697781234 367.44579945799455 316.2786807971293 Q 367.44579945799455 314.4938846164463 368.3386566008517 312.70908843576314 Q 369.2315137437089 310.92429225508 371.01722802942317 308.2470979840554 Q 372.80294231513744 305.56990371303084 375.4815137437089 303.78510753234775 Q 378.16008517228033 302.00031135166466 380.8386566008517 300.21551517098163 Q 383.5172280294231 298.4307189902986 388.874370886566 297.538320899957 Q 394.2315137437089 296.6459228096154 398.6957994579946 296.6459228096154 Q 403.16008517228033 296.6459228096154 405.8386566008517 299.32311708064003 Q 408.5172280294231 302.00031135166466 409.4100851722803 302.8927094420062 Q 410.30294231513744 303.78510753234775 410.30294231513744 304.6775056226893 Q 410.30294231513744 305.56990371303084 411.1957994579946 308.2470979840554 Q 412.0886566008518 310.92429225508 411.1957994579946 310.92429225508 Q 410.30294231513744 310.92429225508 410.30294231513744 309.13949607439696 Q 410.30294231513744 307.3546998937139 410.30294231513744 306.4623018033724 Q 410.30294231513744 305.56990371303084 409.4100851722803 303.78510753234775 Q 408.5172280294231 302.00031135166466 406.73151374370883 301.1079132613231 Q 404.94579945799455 300.2155151709816 403.1600851722803 299.3231170806401 Q 401.374370886566 298.4307189902986 399.5886566008517 298.4307189902986 Q 397.80294231513744 298.4307189902986 396.9100851722803 298.4307189902986 Q 396.0172280294231 298.4307189902986 395.124370886566 300.21551517098163 Q 394.2315137437089 302.00031135166466 394.2315137437089 302.8927094420062 Q 394.2315137437089 303.78510753234775 393.3386566008517 305.56990371303084 Q 392.44579945799455 307.3546998937139 391.55294231513744 309.13949607439696 Q 390.66008517228033 310.92429225508 390.66008517228033 313.60148652610457 Q 390.66008517228033 316.27868079712914 389.76722802942317 319.8482731584954 Q 388.874370886566 323.4178655198616 388.874370886566 325.20266170054464 Q 388.874370886566 326.98745788122767 388.874370886566 329.6646521522523 Q 388.874370886566 332.34184642327693 388.874370886566 334.12664260395997 Q 388.874370886566 335.911438784643 388.874370886566 337.6962349653261 Q 388.874370886566 339.4810311460092 388.874370886566 342.15822541703375 Q 388.874370886566 344.8354196880583 389.76722802942317 345.72781777839987 Q 390.66008517228033 346.6202158687414 393.3386566008517 346.6202158687414 Q 396.0172280294231 346.6202158687414 396.9100851722803 346.6202158687414 Q 397.80294231513744 346.6202158687414 398.69579945799455 346.6202158687414 Q 399.58865660085166 346.6202158687414 402.2672280294231 343.0506235073753 Q 404.94579945799455 339.4810311460092 404.94579945799455 335.91143878464305 Q 404.94579945799455 332.34184642327693 404.94579945799455 329.6646521522523 Q 404.94579945799455 326.98745788122767 405.8386566008517 325.20266170054464 Q 406.7315137437089 323.4178655198616 406.7315137437089 318.95587506815394 Q 406.7315137437089 314.4938846164463 406.7315137437089 312.70908843576314 Q 406.7315137437089 310.92429225508 406.7315137437089 310.0318941647385 Q 406.7315137437089 309.139496074397 406.7315137437089 306.4623018033724 Q 406.7315137437089 303.78510753234775 406.7315137437089 305.56990371303084 Q 406.7315137437089 307.3546998937139 406.7315137437089 311.81669034542153 Q 406.7315137437089 316.27868079712914 406.7315137437089 318.06347697781223 Q 406.7315137437089 319.8482731584953 406.7315137437089 324.31026361020304 Q 406.7315137437089 328.77225406191076 407.624370886566 334.12664260395997 Q 408.5172280294231 339.4810311460092 409.4100851722803 343.0506235073753 Q 410.30294231513744 346.6202158687414 411.1957994579946 353.7594005914737 Q 412.0886566008518 360.898585314206 412.0886566008518 367.14537194659675 Q 412.0886566008518 373.3921585789875 412.0886566008518 376.9617509403536 Q 412.0886566008518 380.53134330171974 412.0886566008518 384.10093566308586 Q 412.0886566008518 387.670528024452 412.0886566008518 393.91731465684273 Q 412.0886566008518 400.1641012892335 412.0886566008518 404.62609174094115 Q 412.0886566008518 409.0880821926488 412.0886566008518 414.4424707346981 Q 412.0886566008518 419.79685927674734 412.0886566008518 422.4740535477719 Q 412.0886566008518 425.1512478187965 412.0886566008518 429.61323827050416 Q 412.0886566008518 434.0752287222118 411.1957994579946 436.75242299323645 Q 410.30294231513744 439.4296172642611 408.51722802942317 441.2144134449441 Q 406.7315137437089 442.99920962562715 405.8386566008517 443.89160771596875 Q 404.94579945799455 444.78400580631035 403.1600851722803 445.67640389665183 Q 401.374370886566 446.5688019869933 399.5886566008517 446.5688019869933 Q 397.80294231513744 446.5688019869933 394.2315137437089 444.78400580631023 Q 390.66008517228033 442.99920962562715 389.76722802942317 441.2144134449441 Q 388.874370886566 439.4296172642611 385.30294231513744 436.75242299323645 Q 381.7315137437089 434.0752287222118 379.9457994579946 426.04364590913804 Q 378.16008517228033 418.01206309606425 378.16008517228033 409.08808219264887 Q 378.16008517228033 400.1641012892335 379.9457994579946 391.24012038581816 Q 381.7315137437089 382.31613948240283 385.30294231513744 375.1769547596706 Q 388.874370886566 368.03777003693835 391.55294231513744 361.7909834045476 Q 394.2315137437089 355.54419677215685 396.9100851722803 353.75940059147376 Q 399.58865660085166 351.9746044107907 400.48151374370883 351.08220632044913 Q 401.374370886566 350.1898082301076 403.1600851722803 350.1898082301076 Q 404.94579945799455 350.1898082301076 407.624370886566 350.1898082301076 Q 410.30294231513744 350.1898082301076 412.0886566008517 351.08220632044913 Q 413.874370886566 351.9746044107907 415.6600851722803 353.75940059147376 Q 417.44579945799455 355.54419677215685 419.23151374370883 357.3289929528399 Q 421.0172280294231 359.1137891335229 420.124370886566 359.1137891335229 Q 419.2315137437089 359.1137891335229 416.55294231513744 358.22139104318137 Q 413.874370886566 357.3289929528398 405.8386566008517 352.86700250113216 L 397.80194231513747 348.4040120494245" stroke-linecap="round" />
</g>
<g transform="matrix(1 0 0 1 313.87 225.25)" id="9wA9EFyghub_AI-VGlKNE"  >
<path style="stroke: rgb(0,0,0); stroke-width: 1; stroke-dasharray: none; stroke-linecap: round; stroke-dashoffset: 0; stroke-linejoin: round; stroke-miterlimit: 10; fill: none; fill-rule: nonzero; opacity: 1;" vector-effect="non-scaling-stroke"  transform=" translate(-313.87, -225.25)" d="M 313.8753708865659 210.97570613682802 Q 313.87437088656594 210.97570613682802 312.9815137437088 210.97570613682802 Q 312.0886566008516 210.97570613682802 311.1957994579945 210.97570613682802 Q 310.3029423151374 210.97570613682802 307.62437088656594 213.65290040785266 Q 304.9457994579945 216.3300946788773 304.0529423151374 219.89968704024344 Q 303.1600851722803 223.46927940160958 303.1600851722803 226.14647367263422 Q 303.1600851722803 228.82366794365885 303.1600851722803 230.60846412434188 Q 303.1600851722803 232.3932603050249 303.1600851722803 234.17805648570803 Q 303.1600851722803 235.96285266639114 304.94579945799455 237.74764884707417 Q 306.73151374370883 239.5324450277572 308.5172280294231 239.5324450277572 Q 310.3029423151374 239.5324450277572 313.87437088656594 238.6400469374157 Q 317.4457994579945 237.74764884707417 319.2315137437088 235.9628526663911 Q 321.01722802942305 234.178056485708 321.9100851722802 233.28565839536645 Q 322.8029423151374 232.3932603050249 323.6957994579945 230.60846412434188 Q 324.5886566008516 228.82366794365885 324.5886566008516 227.03887176297573 Q 324.5886566008516 225.25407558229261 324.5886566008516 223.46927940160958 Q 324.5886566008516 221.68448322092655 324.5886566008516 220.79208513058498 Q 324.5886566008516 219.8996870402434 324.5886566008516 219.00728894990192 Q 324.5886566008516 218.11489085956043 323.6957994579945 218.11489085956043 Q 322.8029423151374 218.11489085956043 321.9100851722802 217.22249276921886 Q 321.01722802942305 216.3300946788773 320.12437088656594 216.3300946788773 Q 319.23151374370883 216.3300946788773 316.5529423151374 215.43769658853577 L 313.87337088656597 214.54429849819425" stroke-linecap="round" />
</g>
<g transform="matrix(1 0 0 1 254.05 265.41)" id="Ogv-ry-0BJ2Yyi8JHTrJw"  >
<path style="stroke: rgb(0,0,0); stroke-width: 1; stroke-dasharray: none; stroke-linecap: round; stroke-dashoffset: 0; stroke-linejoin: round; stroke-miterlimit: 10; fill: none; fill-rule: nonzero; opacity: 1;" vector-effect="non-scaling-stroke"  transform=" translate(-254.05, -265.41)" d="M 204.94479945799443 262.7347953766372 Q 204.94579945799444 262.7347953766372 205.8386566008516 262.7347953766372 Q 206.73151374370877 262.7347953766372 208.51722802942305 262.7347953766372 Q 210.30294231513733 262.7347953766372 213.87437088656588 262.7347953766372 Q 217.44579945799444 262.7347953766372 220.12437088656588 262.7347953766372 Q 222.80294231513733 262.7347953766372 225.48151374370877 262.7347953766372 Q 228.16008517228022 262.7347953766372 231.73151374370877 262.7347953766372 Q 235.30294231513733 262.7347953766372 237.98151374370877 262.7347953766372 Q 240.66008517228022 262.7347953766372 242.4457994579945 262.7347953766372 Q 244.23151374370877 262.7347953766372 245.12437088656588 262.7347953766372 Q 246.017228029423 262.7347953766372 247.80294231513727 262.7347953766372 Q 249.58865660085155 262.7347953766372 253.16008517228016 262.7347953766372 Q 256.7315137437088 262.7347953766372 258.51722802942305 262.7347953766372 Q 260.30294231513733 262.7347953766372 262.0886566008516 262.7347953766372 Q 263.8743708865659 262.7347953766372 266.55294231513733 262.7347953766372 Q 269.2315137437088 262.7347953766372 274.5886566008516 263.62719346697867 Q 279.94579945799444 264.51959155732015 282.6243708865659 264.51959155732015 Q 285.30294231513733 264.51959155732015 286.19579945799444 264.51959155732015 Q 287.08865660085155 264.51959155732015 287.9815137437087 264.51959155732015 Q 288.8743708865659 264.51959155732015 289.76722802942305 265.4119896476617 Q 290.6600851722802 266.30438773800324 291.55294231513733 266.30438773800324 Q 292.44579945799444 266.30438773800324 294.2315137437087 267.1967858283448 Q 296.017228029423 268.08918391868633 296.91008517228016 268.08918391868633 Q 297.80294231513733 268.08918391868633 298.69579945799444 268.08918391868633 Q 299.58865660085155 268.08918391868633 301.3743708865659 268.08918391868633 L 303.1610851722802 268.08918391868633" stroke-linecap="round" />
</g>
<g transform="matrix(1 0 0 1 348.7 162.61)" id="T5oDZp6Sz6HK_NoIo_4gc"  >
<path style="stroke: rgb(0,0,0); stroke-width: 1; stroke-dasharray: none; stroke-linecap: round; stroke-dashoffset: 0; stroke-linejoin: round; stroke-miterlimit: 10; fill: none; fill-rule: nonzero; opacity: 1;" vector-effect="non-scaling-stroke"  transform=" translate(-348.7, -162.61)" d="M 338.8743708865658 203.83752141409585 Q 338.8743708865658 203.83652141409584 338.8743708865658 202.94412332375427 Q 338.8743708865658 202.0517252334127 338.8743708865658 198.48213287204658 Q 338.8743708865658 194.91254051068046 338.8743708865658 193.12774432999743 Q 338.8743708865658 191.3429481493144 338.8743708865658 188.66575387828976 Q 338.8743708865658 185.98855960726513 338.8743708865658 180.63417106521592 Q 338.8743708865658 175.27978252316672 337.98151374370866 171.71019016180057 Q 337.0886566008515 168.14059780043442 335.3029423151372 165.46340352940982 Q 333.51722802942294 162.7862092583852 333.51722802942294 160.10901498736058 Q 333.51722802942294 157.43182071633595 333.51722802942294 156.53942262599446 Q 333.51722802942294 155.64702453565297 333.51722802942294 152.0774321742868 Q 333.51722802942294 148.50783981292062 333.51722802942294 144.04584936121296 Q 333.51722802942294 139.5838589095053 333.51722802942294 137.7990627288222 Q 333.51722802942294 136.01426654813912 333.51722802942294 134.2294703674561 Q 333.51722802942294 132.44467418677306 333.51722802942294 130.65987800608997 Q 333.51722802942294 128.87508182540688 333.51722802942294 127.09028564472382 Q 333.51722802942294 125.30548946404076 334.4100851722801 122.62829519301616 Q 335.3029423151373 119.95110092199155 336.1957994579944 119.05870283165001 Q 337.0886566008515 118.16630474130847 337.98151374370866 117.27390665096695 Q 338.8743708865658 116.38150856062543 339.767228029423 116.38150856062543 Q 340.66008517228016 116.38150856062543 343.33865660085155 116.38150856062543 Q 346.01722802942294 116.38150856062543 347.8029423151372 117.27390665096695 Q 349.5886566008515 118.16630474130847 351.3743708865658 120.84349901233307 Q 353.16008517228016 123.52069328335767 354.94579945799444 127.09028564472382 Q 356.7315137437087 130.65987800608997 357.6243708865658 131.5522760964315 Q 358.51722802942294 132.44467418677306 359.4100851722801 136.90666463848072 Q 360.3029423151373 141.36865509018838 360.3029423151373 144.9382474515545 Q 360.3029423151373 148.50783981292062 361.1957994579944 153.86222835496983 Q 362.0886566008515 159.21661689701904 362.0886566008515 163.67860734872673 Q 362.0886566008515 168.14059780043442 362.0886566008515 172.6025882521421 Q 362.0886566008515 177.0645787038498 362.0886566008515 179.74177297487438 Q 362.0886566008515 182.41896724589895 362.0886566008515 185.9885596072651 Q 362.0886566008515 189.55815196863125 362.0886566008515 192.23534623965585 Q 362.0886566008515 194.91254051068046 362.98151374370866 197.58973478170506 Q 363.8743708865658 200.26692905272967 363.8743708865658 202.9441233237543 Q 363.8743708865658 205.62131759477893 363.8743708865658 206.51371568512045 Q 363.8743708865658 207.40611377546196 363.8743708865658 208.29851186580348 Q 363.8743708865658 209.190909956145 363.8743708865658 206.51371568512042 Q 363.8743708865658 203.83652141409584 363.8743708865658 201.15932714307124 Q 363.8743708865658 198.48213287204663 363.8743708865658 194.02014242033894 L 363.8743708865658 189.55715196863125" stroke-linecap="round" />
</g>
<g transform="matrix(1 0 0 1 347.8 175.28)" id="GlCnga9FVum_F6Ih49aIZ"  >
<path style="stroke: rgb(0,0,0); stroke-width: 1; stroke-dasharray: none; stroke-linecap: round; stroke-dashoffset: 0; stroke-linejoin: round; stroke-miterlimit: 10; fill: none; fill-rule: nonzero; opacity: 1;" vector-effect="non-scaling-stroke"  transform=" translate(-347.8, -175.28)" d="M 363.87537088656575 180.63417106521587 Q 363.87437088656577 180.63417106521587 363.87437088656577 179.74177297487438 Q 363.87437088656577 178.8493748845329 362.9815137437086 178.8493748845329 Q 362.08865660085144 178.8493748845329 362.08865660085144 177.95697679419135 Q 362.08865660085144 177.0645787038498 361.1957994579943 176.17218061350826 Q 360.3029423151372 175.27978252316672 360.3029423151372 174.38738443282517 Q 360.3029423151372 173.49498634248363 359.41008517228005 172.60258825214208 Q 358.5172280294229 171.71019016180054 357.62437088656577 171.71019016180054 Q 356.73151374370866 171.71019016180054 356.73151374370866 170.81779207145902 Q 356.73151374370866 169.9253939811175 355.8386566008515 169.9253939811175 Q 354.9457994579943 169.9253939811175 354.0529423151372 169.9253939811175 Q 353.1600851722801 169.9253939811175 352.26722802942294 169.9253939811175 Q 351.37437088656577 169.9253939811175 350.4815137437086 169.9253939811175 Q 349.58865660085144 169.9253939811175 348.6957994579943 169.9253939811175 Q 347.8029423151372 169.9253939811175 346.91008517228005 169.9253939811175 Q 346.0172280294229 169.9253939811175 345.12437088656577 170.81779207145902 Q 344.23151374370866 171.71019016180054 343.3386566008515 171.71019016180054 Q 342.4457994579943 171.71019016180054 341.5529423151372 171.71019016180054 Q 340.6600851722801 171.71019016180054 339.76722802942294 172.60258825214208 Q 338.87437088656577 173.49498634248363 337.9815137437086 174.38738443282517 Q 337.08865660085144 175.27978252316672 336.1957994579943 176.17218061350826 Q 335.3029423151372 177.0645787038498 335.3029423151372 177.95697679419135 Q 335.3029423151372 178.8493748845329 333.51722802942294 179.74177297487438 L 331.7305137437087 180.63517106521587" stroke-linecap="round" />
</g>
<g transform="matrix(1 0 0 1 369.23 186.88)" id="rGP-TpZWb3WrRzxo2QCo9"  >
<path style="stroke: rgb(0,0,0); stroke-width: 1; stroke-dasharray: none; stroke-linecap: round; stroke-dashoffset: 0; stroke-linejoin: round; stroke-miterlimit: 10; fill: none; fill-rule: nonzero; opacity: 1;" vector-effect="non-scaling-stroke"  transform=" translate(-369.23, -186.88)" d="M 371.0172280294228 134.22847036745614 Q 371.0172280294228 134.22947036745614 371.0172280294228 135.12186845779763 Q 371.0172280294228 136.01426654813912 371.0172280294228 138.69146081916375 Q 371.0172280294228 141.36865509018838 371.0172280294228 144.045849361213 Q 371.0172280294228 146.7230436322376 371.0172280294228 150.29263599360374 Q 371.0172280294228 153.8622283549699 371.0172280294228 157.43182071633603 Q 371.0172280294228 161.00141307770218 371.0172280294228 162.78620925838524 Q 371.0172280294228 164.5710054390683 371.0172280294228 166.35580161975136 Q 371.0172280294228 168.14059780043442 371.0172280294228 173.49498634248366 Q 371.0172280294228 178.8493748845329 371.0172280294228 180.63417106521592 Q 371.0172280294228 182.41896724589895 371.0172280294228 185.9885596072651 Q 371.0172280294228 189.55815196863125 371.0172280294228 194.02014242033894 Q 371.0172280294228 198.48213287204663 371.0172280294228 201.15932714307124 Q 371.0172280294228 203.83652141409584 371.0172280294228 205.6213175947789 Q 371.0172280294228 207.40611377546196 371.0172280294228 210.9757061368281 Q 371.0172280294228 214.54529849819426 371.0172280294228 216.33009467887734 Q 371.0172280294228 218.11489085956043 371.0172280294228 219.8996870402435 Q 371.0172280294228 221.68448322092655 371.0172280294228 224.36167749195116 Q 371.0172280294228 227.03887176297576 371.0172280294228 229.71606603400033 Q 371.0172280294228 232.3932603050249 371.0172280294228 233.28565839536645 Q 371.0172280294228 234.178056485708 371.0172280294228 235.07045457604957 Q 371.0172280294228 235.96285266639114 371.0172280294228 236.85525075673266 Q 371.0172280294228 237.74764884707417 371.0172280294228 238.6400469374157 Q 371.0172280294228 239.5324450277572 370.1243708865657 239.5324450277572 Q 369.2315137437086 239.5324450277572 368.33865660085144 228.82366794365882 L 367.4447994579943 218.11389085956043" stroke-linecap="round" />
</g>
<g transform="matrix(1 0 0 1 379.05 186.88)" id="JGEs7Zb-HZg3nuJOvHdjz"  >
<path style="stroke: rgb(0,0,0); stroke-width: 1; stroke-dasharray: none; stroke-linecap: round; stroke-dashoffset: 0; stroke-linejoin: round; stroke-miterlimit: 10; fill: none; fill-rule: nonzero; opacity: 1;" vector-effect="non-scaling-stroke"  transform=" translate(-379.05, -186.88)" d="M 365.66008517228 171.71119016180054 Q 365.66008517228 171.71019016180054 365.66008517228 170.81779207145902 Q 365.66008517228 169.9253939811175 365.66008517228 169.03299589077596 Q 365.66008517228 168.14059780043442 365.66008517228 167.24819971009288 Q 365.66008517228 166.35580161975133 366.5529423151371 166.35580161975133 Q 367.4457994579942 166.35580161975133 367.4457994579942 165.46340352940982 Q 367.4457994579942 164.5710054390683 368.3386566008514 164.5710054390683 Q 369.23151374370855 164.5710054390683 370.12437088656566 164.5710054390683 Q 371.01722802942277 164.5710054390683 371.91008517227993 163.67860734872676 Q 372.8029423151371 162.7862092583852 373.6957994579942 162.7862092583852 Q 374.5886566008513 162.7862092583852 376.37437088656566 162.7862092583852 Q 378.16008517228 162.7862092583852 379.0529423151371 162.7862092583852 Q 379.9457994579942 162.7862092583852 380.8386566008514 162.7862092583852 Q 381.73151374370855 162.7862092583852 383.5172280294228 163.67860734872676 Q 385.3029423151371 164.5710054390683 386.1957994579942 166.35580161975136 Q 387.0886566008513 168.14059780043442 387.9815137437085 169.03299589077596 Q 388.87437088656566 169.9253939811175 388.87437088656566 170.81779207145902 Q 388.87437088656566 171.71019016180054 389.7672280294228 173.49498634248363 Q 390.66008517228 175.27978252316672 390.66008517228 176.17218061350826 Q 390.66008517228 177.0645787038498 390.66008517228 179.74177297487438 Q 390.66008517228 182.41896724589895 390.66008517228 183.3113653362405 Q 390.66008517228 184.20376342658204 391.5529423151371 187.77335578794822 Q 392.4457994579942 191.3429481493144 392.4457994579942 194.02014242033897 Q 392.4457994579942 196.69733669136355 392.4457994579942 198.4821328720466 Q 392.4457994579942 200.26692905272967 392.4457994579942 202.05172523341275 Q 392.4457994579942 203.83652141409584 391.5529423151371 205.6213175947789 Q 390.66008517228 207.40611377546196 389.7672280294228 209.190909956145 Q 388.87437088656566 210.97570613682802 387.9815137437085 210.97570613682802 Q 387.0886566008513 210.97570613682802 386.1957994579942 210.97570613682802 Q 385.3029423151371 210.97570613682802 384.41008517227993 210.97570613682802 Q 383.51722802942277 210.97570613682802 381.7315137437085 210.97570613682802 Q 379.9457994579942 210.97570613682802 379.0529423151371 210.97570613682802 Q 378.16008517228 210.97570613682802 378.16008517228 210.0833080464865 Q 378.16008517228 209.190909956145 377.2672280294228 208.29851186580348 Q 376.37437088656566 207.40611377546196 375.4815137437085 207.40611377546196 Q 374.5886566008513 207.40611377546196 374.5886566008513 206.51371568512045 Q 374.5886566008513 205.62131759477893 374.5886566008513 204.72891950443739 Q 374.5886566008513 203.83652141409584 373.6957994579942 203.83652141409584 Q 372.8029423151371 203.83652141409584 372.8029423151371 201.15932714307124 L 372.8029423151371 198.48113287204663" stroke-linecap="round" />
</g>
<g transform="matrix(1 0 0 1 394.23 186.68)" id="JN3IRg_r49bEFMN0Cj1l8"  >
<path style="stroke: rgb(0,0,0); stroke-width: 1; stroke-dasharray: none; stroke-linecap: round; stroke-dashoffset: 0; stroke-linejoin: round; stroke-miterlimit: 10; fill: none; fill-rule: nonzero; opacity: 1;" vector-effect="non-scaling-stroke"  transform=" translate(-394.23, -186.68)" d="M 394.2315137437085 134.22847036745614 Q 394.2315137437085 134.22947036745614 394.2315137437085 135.12186845779763 Q 394.2315137437085 136.01426654813912 394.2315137437085 137.7990627288222 Q 394.2315137437085 139.5838589095053 394.2315137437085 142.2610531805299 Q 394.2315137437085 144.9382474515545 394.2315137437085 149.4002379032622 Q 394.2315137437085 153.8622283549699 394.2315137437085 159.2166168970191 Q 394.2315137437085 164.5710054390683 394.2315137437085 169.9253939811175 Q 394.2315137437085 175.27978252316672 394.2315137437085 179.74177297487438 Q 394.2315137437085 184.20376342658204 394.2315137437085 188.6657538782897 Q 394.2315137437085 193.12774432999737 394.2315137437085 196.69733669136352 Q 394.2315137437085 200.26692905272967 394.2315137437085 204.72891950443733 Q 394.2315137437085 209.190909956145 394.2315137437085 211.86810422716962 Q 394.2315137437085 214.54529849819426 394.2315137437085 217.22249276921883 Q 394.2315137437085 219.8996870402434 394.2315137437085 222.576881311268 Q 394.2315137437085 225.25407558229261 394.2315137437085 227.03887176297573 Q 394.2315137437085 228.82366794365885 394.2315137437085 230.60846412434188 Q 394.2315137437085 232.3932603050249 394.2315137437085 233.28565839536645 Q 394.2315137437085 234.178056485708 394.2315137437085 235.9628526663911 Q 394.2315137437085 237.74764884707417 394.2315137437085 238.6400469374157 Q 394.2315137437085 239.5324450277572 394.2315137437085 235.96285266639106 Q 394.2315137437085 232.3932603050249 394.2315137437085 216.3300946788773 L 394.2315137437085 200.26592905272966" stroke-linecap="round" />
</g>
<g transform="matrix(1 0 0 1 412.09 183.31)" id="j1uQESbLuXqjIdxqPWyzk"  >
<path style="stroke: rgb(0,0,0); stroke-width: 1; stroke-dasharray: none; stroke-linecap: round; stroke-dashoffset: 0; stroke-linejoin: round; stroke-miterlimit: 10; fill: none; fill-rule: nonzero; opacity: 1;" vector-effect="non-scaling-stroke"  transform=" translate(-412.09, -183.31)" d="M 392.4457994579941 171.71119016180054 Q 392.4457994579941 171.71019016180054 392.4457994579941 170.81779207145902 Q 392.4457994579941 169.9253939811175 392.4457994579941 169.03299589077596 Q 392.4457994579941 168.14059780043442 392.4457994579941 167.24819971009288 Q 392.4457994579941 166.35580161975133 393.33865660085127 164.57100543906827 Q 394.23151374370843 162.7862092583852 395.12437088656554 161.00141307770213 Q 396.01722802942265 159.21661689701904 396.9100851722798 159.21661689701904 Q 397.802942315137 159.21661689701904 399.58865660085127 159.21661689701904 Q 401.37437088656554 159.21661689701904 402.2672280294227 159.21661689701904 Q 403.1600851722799 159.21661689701904 404.052942315137 159.21661689701904 Q 404.9457994579941 159.21661689701904 406.7315137437084 159.21661689701904 Q 408.51722802942265 159.21661689701904 409.4100851722798 160.1090149873606 Q 410.302942315137 161.00141307770218 411.19579945799416 161.00141307770218 Q 412.0886566008513 161.00141307770218 413.8743708865656 161.8938111680437 Q 415.6600851722799 162.7862092583852 416.552942315137 163.67860734872676 Q 417.4457994579941 164.5710054390683 419.2315137437084 167.2481997100929 Q 421.01722802942265 169.9253939811175 422.802942315137 172.6025882521421 Q 424.5886566008513 175.27978252316672 425.48151374370843 177.0645787038498 Q 426.37437088656554 178.8493748845329 428.1600851722798 182.418967245899 Q 429.9457994579941 185.98855960726513 430.83865660085127 187.7733557879482 Q 431.73151374370843 189.55815196863125 431.73151374370843 190.45055005897282 Q 431.73151374370843 191.3429481493144 431.73151374370843 195.80493860102203 Q 431.73151374370843 200.26692905272967 431.73151374370843 202.05172523341275 Q 431.73151374370843 203.83652141409584 429.052942315137 204.72891950443739 Q 426.37437088656554 205.62131759477893 425.48151374370843 206.51371568512045 Q 424.5886566008513 207.40611377546196 423.69579945799416 207.40611377546196 Q 422.802942315137 207.40611377546196 421.0172280294227 207.40611377546196 Q 419.23151374370843 207.40611377546196 418.33865660085127 207.40611377546196 Q 417.4457994579941 207.40611377546196 416.552942315137 207.40611377546196 Q 415.6600851722799 207.40611377546196 414.7672280294227 207.40611377546196 Q 413.87437088656554 207.40611377546196 412.98151374370843 207.40611377546196 Q 412.0886566008513 207.40611377546196 411.19579945799416 206.51371568512045 Q 410.302942315137 205.62131759477893 409.4100851722798 205.62131759477893 Q 408.51722802942265 205.62131759477893 407.62437088656554 204.72891950443739 Q 406.73151374370843 203.83652141409584 405.83865660085127 203.83652141409584 Q 404.9457994579941 203.83652141409584 404.052942315137 202.94412332375427 Q 403.1600851722799 202.0517252334127 402.2672280294227 201.15932714307118 Q 401.37437088656554 200.26692905272967 399.58865660085127 198.4821328720466 Q 397.802942315137 196.69733669136355 395.12437088656554 196.69733669136355 L 392.4447994579941 196.69733669136355" stroke-linecap="round" />
</g>
</svg>